/* XPM */
static char *result[] = {
/* columns rows colors chars-per-pixel */
"32 32 247 2 ",
"   c #7A5F36",
".  c #7B5F37",
"X  c #7B6037",
"o  c #7E6037",
"O  c #79613F",
"+  c #494949",
"@  c #544B4B",
"#  c #554C4B",
"$  c #554C4C",
"%  c #574D4D",
"&  c #574E4E",
"*  c #584E4A",
"=  c #5A4F4A",
"-  c #5D5048",
";  c #5C5049",
":  c #5D504A",
">  c #5D514A",
",  c #535353",
"<  c gray33",
"1  c #595050",
"2  c #5A5050",
"3  c #5A5151",
"4  c #5B5151",
"5  c #5C5252",
"6  c #5D5252",
"7  c #5D5353",
"8  c #605247",
"9  c #625346",
"0  c #625447",
"q  c #6D5A43",
"w  c #605349",
"e  c #645549",
"r  c #665749",
"t  c #685849",
"y  c #6A5948",
"u  c #6A5949",
"i  c #6B5A48",
"p  c #6E5C48",
"a  c #6F5D49",
"s  c #715C41",
"d  c #715C44",
"f  c #725E44",
"g  c #705D48",
"h  c #725E48",
"j  c #655D5D",
"k  c #7A6446",
"l  c #7A6447",
"z  c #7B6447",
"x  c #7E6B45",
"c  c #7D7656",
"v  c #7A785B",
"b  c #757B63",
"n  c #767A62",
"m  c #767D65",
"M  c #767D66",
"N  c #777E66",
"B  c #7E746D",
"V  c #84673B",
"C  c #82653D",
"Z  c #81663C",
"A  c #82663C",
"S  c #89633A",
"D  c #85683B",
"F  c #85683C",
"G  c #85693D",
"H  c #86693C",
"J  c #876A3C",
"K  c #886A3D",
"L  c #886B3D",
"P  c #896B3D",
"I  c #8B6D3E",
"U  c #8C6D3E",
"Y  c #8C6E3F",
"T  c #8D6E3F",
"R  c #91663C",
"E  c #91663D",
"W  c #91673D",
"Q  c #91673E",
"!  c #806447",
"~  c #816447",
"^  c #826447",
"/  c #806746",
"(  c #856C41",
")  c #856D42",
"_  c #856E43",
"`  c #856B45",
"'  c #866B45",
"]  c #846A46",
"[  c #8A6D43",
"{  c #8B6E42",
"}  c #8A6F43",
"|  c #8C6E40",
" . c #8E6F40",
".. c #8E6F41",
"X. c #886D45",
"o. c #886E46",
"O. c #8C6F45",
"+. c #876F4F",
"@. c #906940",
"#. c #906941",
"$. c #906A41",
"%. c #906A42",
"&. c #946C42",
"*. c #966D42",
"=. c #8E7041",
"-. c #8F7041",
";. c #887046",
":. c #8D7045",
">. c #8E7045",
",. c #8E7145",
"<. c #8F7145",
"1. c #84724B",
"2. c #85724B",
"3. c #86744C",
"4. c #8F704A",
"5. c #8F714A",
"6. c #8E714B",
"7. c #88744B",
"8. c #8E724D",
"9. c #907141",
"0. c #917242",
"q. c #927242",
"w. c #927343",
"e. c #937343",
"r. c #937443",
"t. c #947443",
"y. c #917244",
"u. c #917344",
"i. c #927344",
"p. c #937747",
"a. c #947444",
"s. c #957444",
"d. c #947544",
"f. c #957544",
"g. c #967746",
"h. c #9D7846",
"j. c #987949",
"k. c #9B7B4C",
"l. c #836E52",
"z. c #807350",
"x. c #867751",
"c. c #8D7651",
"v. c #8D7854",
"b. c #887C57",
"n. c #837C5A",
"m. c #867E5A",
"M. c #8B7E59",
"N. c #8C7D5B",
"B. c #8C7F5E",
"V. c #A07746",
"C. c #A67545",
"Z. c #A17947",
"A. c #A27947",
"S. c #A57B48",
"D. c #A5794B",
"F. c #AC7948",
"G. c #AC7A48",
"H. c #AE7B48",
"J. c #AE7B49",
"K. c #AC7D4A",
"L. c #B07C49",
"P. c #B17D4A",
"I. c #B27E4A",
"U. c #B37E4B",
"Y. c #B47F4B",
"T. c #788068",
"R. c #798169",
"E. c #7E866D",
"W. c #7F866D",
"Q. c #8E815A",
"!. c #8E825B",
"~. c #8F825B",
"^. c #9C8054",
"/. c #B6814C",
"(. c #B7824D",
"). c #B8824D",
"_. c #A2885F",
"`. c #B88653",
"'. c #B98B5C",
"]. c #B98C5E",
"[. c #828266",
"{. c #8A8464",
"}. c #80886F",
"|. c #81896F",
" X c #86896C",
".X c #8B8A69",
"XX c #89896B",
"oX c #888A6C",
"OX c #888B6D",
"+X c #8B8A6C",
"@X c #9E8662",
"#X c #9F8763",
"$X c #818970",
"%X c #828A70",
"&X c #848D72",
"*X c #868E73",
"=X c #868F74",
"-X c #868F75",
";X c #878F75",
":X c #888D70",
">X c #898D70",
",X c #898D71",
"<X c #898E71",
"1X c #888E72",
"2X c #888F73",
"3X c #888F74",
"4X c #879075",
"5X c #889074",
"6X c #889075",
"7X c #889176",
"8X c #899276",
"9X c #8B9377",
"0X c #8D9377",
"qX c #8D9478",
"wX c #8F9578",
"eX c #8D957C",
"rX c #8C967E",
"tX c #8D977F",
"yX c #92977A",
"uX c #94987B",
"iX c #A28960",
"pX c #A38C65",
"aX c #AF9167",
"sX c #AB916A",
"dX c #A59277",
"fX c #AF9671",
"gX c #A9967A",
"hX c #B09873",
"jX c #C2A57A",
"kX c #A7A382",
"lX c #B5A181",
"zX c #B4AB87",
"xX c #B6AC87",
"cX c #BFB28B",
"vX c #B5ADA5",
"bX c #B8B4B4",
"nX c #C2AA80",
"mX c #CBB990",
"MX c #C0B5A6",
"NX c #C8B8A0",
"BX c #BFD0D2",
"VX c #C2CFCF",
"CX c #C2D3D5",
"ZX c #C0D3D7",
"AX c #C3DAE2",
"SX c #F0EEEC",
"DX c None",
/* pixels */
"DXDXDXDXDXDXDX6 3 $ @ @ @ @ @ @ @ @ @ @ @ $ 7 7 DXDXDXDXDXDXDXDX",
"DXDXDXDXDXDXDX7 % @ @ @ @ @ @ @ @ @ @ @ @ @ 1 7 DXDXDXDXDXDXDXDX",
"DXDXDXDXDXDX7 7 @ @ @ @ @ @ @ @ @ @ @ @ @ @ $ 5 7 DXDXDXDXDXDXDX",
"DXDXDXDXDXDX7 4 @ @ @ @ @ @ @ @ @ @ @ @ @ @ @ & 7 DXDXDXDXDXDXDX",
"DXDXDXDXDXDX7 & @ h l e * @ @ : :.] g w = e = @ DXDXDXDXDXDXDXDX",
"DXDXDXDXDXDX5 $ @ ' f.f.,./ y X.f.f.f.d.<.f.' # DXDXDXDXDXDXDXDX",
"DXDXDXDXDXDX2 @ * <.f.,.` <.u.f.f.f.f.y.<.O.a.t DXDXDXDXDXDXDXDX",
"DXDXDXDXDXDX@ @ ; w.f.>.u e p d.f.f.<.r e r i.' DXDXDXDXDXDXDXDX",
"DXDXDXDXDXDX@ > [ L f.sXvXi #Xf.f.f.g.+.l.NXf.f.DXDXDXDXDXDXDXDX",
"DXDXDXDXDXDXDXf f.P 9.fXbX@ gXf.f.f.j.B j SXf.f.DXDXDXDXDXDXDXDX",
"DXDXDXDXDXDXDXD q.t. .f.lXdXa e k e z @XMXhXf.t.DXDXDXDXDXDXDXDX",
"DXDXDXDXDXDXDXD J 9. .K F 0 # 8 s - # d T e.f.T DXDXDXDXDXDXDXDX",
"DXDXDXDXDXDXDXD D D D D Z q A D D D O 9 D D H G DXDXDXDXDXDXDXDX",
"DXDXDXDXDXDXDXD D D D D D D D D D D D V D D D x.7XDXDXDXDXDXDXDX",
"DXDXDXDXDXDXDX1X3._ ) ) V V V V D D D D D D ( OX7X7XDXDXDXDXDXDX",
"DXDXDXDXDXDX7X7X7X5X3X2Xx       . . X n.oXoX:X7X7X7X|.DXDXDXDXDX",
"DXDXDXDXDXDXm E.-X7X7X7Xv.S o C o.z. X4X}.}.&X7X%XN n DXDXDXDXDX",
"DXDXDXDXDXDX2.v M E.;X6X%.R R *.nXqX7X=XT.R.$X7X[.1.{ DXDXDXDXDX",
"DXDXDXDXDXq...| ;.c b W.c.E R R Q B.7XyXmXmXxX7XM.-.w.DXDXDXDXDX",
"DXDXDXDXDXf.f.t.0.=.7.*X0XaXW R R W N.wXzXzXkX7X!.f.f.DXDXDXDXDX",
"DXDXDXDXDXf.f.f.e.r..X7X8XcXjX&.R R R 8.2X7X7X7X~.f.f.s.DXDXDXDX",
"DXDXDXDXDXf.f.f.t.Y m.7X7X9XuX+X$.R R R 5.,X7X7X~.f.f.f.DXDXDXDX",
"DXDXDXDXf.f. .K t.f.} 1X7X7X7X7X>X4.R R R #.XX7XQ.f.f.f.DXDXDXDX",
"DXDXDXDXDX9.U r.f.f.p.<X7X7X7XrXtXeX6.R R R @.{.b.P I t.DXDXDXDX",
"DXDXDXDXDXf.f.f.f.f.f.^.iXiXpXBXAXZX_.D.C.C.C.C.k.f.f.f.DXDXDXDX",
"DXDXDXDXDXDXf.f.f.f.Z./.).).`.VXAXCX).).).).).).S.f.f.DXDXDXDXDX",
"DXDXDXDXDXDXDXa.h.K.).).).).(.].DX'.).).).).).).A.f.f.DXDXDXDXDX",
"DXDXDXDXDXDXDXDXU.I.P.L.H.G.F.DXDXY.U.P.L.J.G.F.V.f.DXDXDXDXDXDX",
"DXDXDXDXDXDXDXDX~ ~ ~ ~ ~ ~ ^ DXDXDX~ ~ ~ ~ ~ ~ ! DXDXDXDXDXDXDX",
"DXDXDXDXDXDXDXDX+ + + + + + + DXDXDX+ + + + + + + DXDXDXDXDXDXDX",
"DXDXDXDXDXDXDX< < < < < < < < DXDXDX< < < < < < < , DXDXDXDXDXDX",
"DXDXDXDXDXDXDX< < < < < < < < < DXDX< < < < < < < < DXDXDXDXDXDX"
};
