/* XPM */
static char *result[] = {
/* columns rows colors chars-per-pixel */
"32 32 23 1 ",
"  c #B4A78C",
". c #AC906C",
"X c #A06D3D",
"o c #90653B",
"O c #6B5038",
"+ c #6D5238",
"@ c #574636",
"# c gray20",
"$ c #534437",
"% c #514337",
"& c #936B46",
"* c #3F3A36",
"= c #926B46",
"- c #87613C",
"; c #373634",
": c #7C5A3A",
"> c #614B37",
", c #564536",
"< c #9D7148",
"1 c #9C734D",
"2 c #9D7249",
"3 c #A37040",
"4 c #A47141",
/* pixels */
"    .XXXXXXXXXXXXXXXXXXXXXX.    ",
"    .XXXXXXXXXXXXXXXXXXXXXX.    ",
"    .XXXXXXXXXXXXXXXXXXXXXX.    ",
"    .XXXXXXXXXXXXXXXXXXXXXX.    ",
"    .XXXXXXXXXXXXXXXXXXXXXX.    ",
"    .XXXXXXXXXXXXXXXXXXXXXX.    ",
"    .XXXXXXXXXXXXXXXXXXXXXX.    ",
"    .XXXXXXXXXXXXXXXXXXXXXX.    ",
"    .XXXXXXXXXXXXXXXXXXXXXX.    ",
"    .XXXXXXXXXXXXXXXXXXXXXX.    ",
"    .XXXXXXXXXXXXXXXXXXXXXX.    ",
"    .XXXXXXXXXXXXXXXXXXXXXX.    ",
"    .XXXXXXXXXXXXXXXoO+oXXX.    ",
"    .XXXXXXXXXXXXXXX@##@XXX.    ",
"    .XXXXXXXXXXXXXXX$##%XXX.    ",
"    .XXXXXXXXXXXXXXX&#*=XXX.    ",
"    .XXXXXXXXXXXXXXX-#;:XXX.    ",
"    .XXXXXXXXXXXXXXX>##,XXX.    ",
"    .XXXXXXXXXXXXXXX<112XXX.    ",
"    .XXXXXXXXXXXXXXX3444XXX.    ",
"    .XXXXXXXXXXXXXXXXXXXXXX.    ",
"    .XXXXXXXXXXXXXXXXXXXXXX.    ",
"    .XXXXXXXXXXXXXXXXXXXXXX.    ",
"    .XXXXXXXXXXXXXXXXXXXXXX.    ",
"    .XXXXXXXXXXXXXXXXXXXXXX.    ",
"    .XXXXXXXXXXXXXXXXXXXXXX.    ",
"    .XXXXXXXXXXXXXXXXXXXXXX.    ",
"    .XXXXXXXXXXXXXXXXXXXXXX.    ",
"    .XXXXXXXXXXXXXXXXXXXXXX.    ",
"    .XXXXXXXXXXXXXXXXXXXXXX.    ",
"    .XXXXXXXXXXXXXXXXXXXXXX.    ",
"    .XXXXXXXXXXXXXXXXXXXXXX.    "
};
