/* XPM */
static char *result[] = {
/* columns rows colors chars-per-pixel */
"32 32 188 2 ",
"   c #607F77",
".  c #6B737A",
"X  c #6A747A",
"o  c #6B747B",
"O  c #6B757B",
"+  c #69767A",
"@  c #68777A",
"#  c #6A767B",
"$  c #6B747C",
"%  c #6B757C",
"&  c #6B767C",
"*  c #6A777C",
"=  c #6C757C",
"-  c #6C757D",
";  c #6C767D",
":  c #6D767D",
">  c #6D767E",
",  c #6D777E",
"<  c #6E777F",
"1  c #647B79",
"2  c #67787A",
"3  c #657C7A",
"4  c #647E7A",
"5  c #68787A",
"6  c #6E787F",
"7  c #6C7A7F",
"8  c #697E7E",
"9  c #24A55A",
"0  c #25A65A",
"q  c #25A65B",
"w  c #3BA46B",
"e  c #35AA69",
"r  c #28B262",
"t  c #29B463",
"y  c #2EB267",
"u  c #29B665",
"i  c #29B765",
"p  c #2AB665",
"a  c #29B866",
"s  c #2ABA67",
"d  c #2ABB67",
"f  c #2FB96A",
"g  c #2ABC68",
"h  c #2ABE69",
"j  c #31B068",
"k  c #3CB773",
"l  c #3BB873",
"z  c #38BD73",
"x  c #3CBA74",
"c  c #3FBB77",
"v  c #3DBD76",
"b  c #48976F",
"n  c #5E9C67",
"m  c #5D8376",
"M  c #588775",
"N  c #538C73",
"B  c #598976",
"V  c #5B8B78",
"C  c #5B8A79",
"Z  c #5F897A",
"A  c #5A8D78",
"S  c #469B70",
"D  c #539777",
"F  c #549577",
"G  c #579178",
"H  c #6F9268",
"J  c #63807A",
"K  c #63817A",
"L  c #65847E",
"P  c #628A7F",
"I  c #4BA176",
"U  c #4CA176",
"Y  c #4CA177",
"T  c #47A875",
"R  c #46AA75",
"E  c #4DA378",
"W  c #51A17A",
"Q  c #40B174",
"!  c #41B174",
"~  c #47B77B",
"^  c #4DB27D",
"/  c #4CB37D",
"(  c #4AB57C",
")  c #42BB79",
"_  c #43BB79",
"`  c #45B97A",
"'  c #40BD78",
"]  c #2BC06B",
"[  c #2BC16B",
"{  c #2BC26B",
"}  c #2CC36C",
"|  c #2CC46D",
" . c #2CC56D",
".. c #2DC66D",
"X. c #2DC76E",
"o. c #2DC86F",
"O. c #2CC96F",
"+. c #2DC96F",
"@. c #2CCA6F",
"#. c #2CCB6F",
"$. c #2DCA70",
"%. c #2DCB70",
"&. c #2ECA70",
"*. c #2ECB70",
"=. c #2FCA71",
"-. c #2ECB71",
";. c #2FCB71",
":. c #2FCB72",
">. c #2ECC70",
",. c #2ECC71",
"<. c #35C172",
"1. c #37C072",
"2. c #35C272",
"3. c #33C472",
"4. c #33C572",
"5. c #32C672",
"6. c #34C774",
"7. c #36C674",
"8. c #39C376",
"9. c #3BC276",
"0. c #3CC077",
"q. c #38C475",
"w. c #31C871",
"e. c #30C971",
"r. c #31C872",
"t. c #32C973",
"y. c #31CA72",
"u. c #30CD73",
"i. c #31CD73",
"p. c #35CE75",
"a. c #38CE78",
"s. c #3ACF79",
"d. c #3BCF7A",
"f. c #3DCF7B",
"g. c #3DD07B",
"h. c #53C27C",
"j. c #6E7880",
"k. c #6F7880",
"l. c #6F7980",
"z. c #6F7981",
"x. c #6F7A81",
"c. c #707981",
"v. c #707A82",
"b. c #717A82",
"n. c #707B82",
"m. c #717A83",
"M. c #717B83",
"N. c #6B9989",
"B. c #699A89",
"V. c #699B89",
"C. c #6A9A89",
"Z. c #6B998A",
"A. c #5AA783",
"S. c #5FA285",
"D. c #46D282",
"F. c #4BD385",
"G. c #52D589",
"H. c #5AD78F",
"J. c #6FDC9D",
"K. c #71DC9E",
"L. c #77DEA3",
"P. c #78DBA1",
"I. c #7BDFA5",
"U. c #BBB3A6",
"Y. c #BCB4A7",
"T. c #81E0A9",
"R. c #83E1AB",
"E. c #86E1AD",
"W. c #91E4B5",
"Q. c #93E5B6",
"!. c #A2E8C0",
"~. c #A3E9C1",
"^. c #A4E9C1",
"/. c #B0ECCA",
"(. c #B1ECCA",
"). c #B4EDCC",
"_. c #C1E7CE",
"`. c #C1F0D5",
"'. c #C4F0D7",
"]. c #D1F4E0",
"[. c #D4F4E2",
"{. c #EBFAF2",
"}. c #F5FDF8",
"|. c #FAFEFC",
" X c #FDFDFC",
".X c #FEFEFE",
"XX c white",
"oX c None",
/* pixels */
"oXoXoXoXoXoXoXoXoXoXoXv.v.v.v.z.oXoXoXoXoXoXoXoXoXoXoXoXoXoXoXoX",
"oXoXoXoXoXoXoXoXoXn.M.M.M.M.M.v.oXoXoXoXoXoXoXoXoXoXoXoXoXoXoXoX",
"oXoXoXoXoXoXoXoXM.M.M.M.M.M.v.v.v.v.v.v.v.z.6 : $ X oXoXoXoXoXoX",
"oXoXoXoXoXoXoXn.M.M.M.M.M.M.M.M.M.M.v.j.- o o o o o o . oXoXoXoX",
"oXoXoXoXoXoXv.M.M.M.M.v.M.M.M.M.z.> = o o o o o o o o oXoXoXoXoX",
"oXoXoXM.v.M.M.M.M.M.j.o j.M.z.> o o o o o o o o o o o oXoXoXoXoX",
"oXoXv.M.M.M.M.M.b.< % o $ : = o o o o o o o o o o o o o - M.M.v.",
"oXoXM.M.M.M.M.M., o o o o o o o o o o o o o o o o o o o o M.M.M.",
"oXv.M.M.M.M.v.: o o o o o o o o o o o o o o o o o o o o o v.M.M.",
"oXM.M.M.M.z.; o o o o o o o o o o o o o o o o o o o o o o z.M.M.",
"v.M.M.M.v.= o o o 2 m @ o o o o o o o o o o o o o o o o o k.M.M.",
"v.M.M.z.$ o o o # S i p e b M   + o o o o o o o o o o o o 6 M.M.",
"x.n.k.$ o o o o C j i i i i p y N o o o o o o o o o o o o 6 M.v.",
"oX> o o o o = k.l | { h d a i i w 1 o o o o o o o o o o o 6 M.v.",
"oXo o o o 4 Y W ;.,.,.$.+.X.| [ f B o o o o o % * K J o o 6 M.v.",
"oXo o o o T e.,.,.,.,.,.,.,.,.,.,.U o 3 V Z 7 L E x R o o j.M.b.",
"oXo o o 5 w.,.,.9._ 0.q.q.7.:.,.,.e.4.,.t.v c q.) 0.<.o o l.M.oX",
"oXo o o o k ,.,.^ B.N.C.C.V.( ,.,.,.,.6.S.C.C.C.Z.A.r.4 o c.m.oX",
"oXo o o o I ;.,.t.' ( / / / 0.,.,.,.,.y.~ / / / ` 8.,.F o M.oXoX",
"oXo o o o A 2.,.,.,.,.,.,.,.,.,.,.,.,.,.,.,.,.,.,.,.,.! & v.oXoX",
"oXo o o o G 3.,.,.L.~.~.~.T.s.,.,.,.,.,.f.~.~.~.~.F.,.z 8 oXoXoX",
"oXo o o # z -.*.,.I.}.XXXXE.i.,.,.,.,.,.,.[.XXXX'.D.,.5.P oXoXoX",
"oXX o O D -.} s *.s.T./.Q.g.,.,.,.,.p.d.i.H.!./.G.u.,.;.oXoXoXoX",
"oXoXo 4 1.,...t [ -.,.,.,.a.H.J.R.Q.^.(.P.,.,.,.,.,.,.-.oXoXoXoX",
"oXoXoXQ ,.,.,.] r } ,.,.,.`.XXXXXXXX XY.H ,.,.,.,.,.,.,.oXoXoXoX",
"oXoXoX=.,.,.,.&.u g ,.,.,.K.).].{.|..XU.n ,.,.,.,.,.,.,.oXoXoXoX",
"oXoXoX>.,.,.,.,. .g &.,.,.,.,.d.J.W.)._.h.,.,.,.,.,.,.%.oXoXoXoX",
"oXoXoX@.,.,.,.,.,.,.,.,.,.,.,.,.,.,.,.,.,.,.,.,.,.,.,.oXoXoXoXoX",
"oXoXoXoX#.$.$.$.$.o. . . . . . . . . . . . .O.$.$.$.oXoXoXoXoXoX",
"oXoXoXoXoXoXoXoXoXoXoXoX9 q q q q q q 9 oXoXoXoXoXoXoXoXoXoXoXoX",
"oXoXoXoXoXoXoXoXoXoXoXoXoX9 9 q q 0 oXoXoXoXoXoXoXoXoXoXoXoXoXoX",
"oXoXoXoXoXoXoXoXoXoXoXoXoXoXoXoXoXoXoXoXoXoXoXoXoXoXoXoXoXoXoXoX"
};
