/* XPM */
static char *result[] = {
/* columns rows colors chars-per-pixel */
"32 32 63 1 ",
"  c white",
". c #F8F3F1",
"X c #9C491F",
"o c #9B481F",
"O c #9C502A",
"+ c #F8F8F8",
"@ c #9A471E",
"# c #803817",
"$ c #853B19",
"% c #8C3F1B",
"& c #864223",
"* c #C05E2C",
"= c #BD5C2B",
"- c #B35627",
"; c #92421D",
": c #BB5B2B",
"> c #B8582A",
", c #B25427",
"< c #AD5125",
"1 c #B15427",
"2 c #AA4F24",
"3 c #92441F",
"4 c #AF5226",
"5 c #AC5125",
"6 c #BA5A2A",
"7 c #BC5B2B",
"8 c #BB5B2A",
"9 c #AA5026",
"0 c #975637",
"q c #B65828",
"w c #B15426",
"e c #934521",
"r c #B55728",
"t c #AF5325",
"y c #B9592A",
"u c #AD5225",
"i c #AE5325",
"p c #BA917C",
"a c #B58B78",
"s c #B87454",
"d c #B45F37",
"f c #B37A5D",
"g c #9B6449",
"h c #A65630",
"j c #AA542A",
"k c #AC5124",
"l c #AE5225",
"z c #92431F",
"x c #AF5326",
"c c #AF5425",
"v c #934522",
"b c #E7DBD8",
"n c #CDACA3",
"m c #8B3715",
"M c #873615",
"N c #9B401A",
"B c #963D18",
"V c #973D19",
"C c #883615",
"Z c #84381B",
"A c #D1B4AC",
"S c #B59087",
"D c #671501",
/* pixels */
"       .XooooooooooooooO        ",
"+      .@#$$$$$$$$$$$$%&        ",
"       .@%*==========-;&        ",
"       .@%:>>>,<<1>>>23&        ",
"       .@%:>456778<4>90&        ",
"       .@%:>q6>>>>6w>2e&        ",
"       .@%:>r>>>>>>ty2;&        ",
"       .@%:>r>>>>>>ty2;&        ",
"       .@%:>r>>>>>>ty2;&        ",
"       .@%:>r>>>>>>ty2;&        ",
"       .@%:>r>>>>>>ty2;&        ",
"       .@%:>r>>>>>>ty2;&        ",
"       .@%:>r>>>>>>ty2;&        ",
"       .@%:>r>>>>>>ty2;&        ",
"       .@%:>r>>>>>>ty2;&        ",
"       .@%:>r>>>>>>ty2;&        ",
"       .@%:>uiiiiiity2;&        ",
"       .@%pasd>>>>>>>2;&        ",
"       .@%fghj>>>>>>>2;&        ",
"       .@%:>kwwwwwwl>2;&        ",
"       .@%:>r>>>>>>ty2;&        ",
"       .@%:>r>>>>>>ty2;&        ",
"       .@%:>r>>>>>>ty2;&        ",
"       .@%:>r>>>>>>ty2;&        ",
"       .@%:>r>>>>>>ty2;&        ",
"       .@%:>r>>>>>>ty2;&        ",
"       .@%:>r>>>>>>ty2z&        ",
"       .@%:>r>>>>>>ty90&        ",
"       .@%:>uxxxxxxcy2v&        ",
"       .@%:>>>>>>>>>>2;&        ",
"      bnmMNBBBBBBBBBBVCZAb      ",
"      SDDDDDDDDDDDDDDDDDDS      "
};
