/* XPM */
static char *result[] = {
/* columns rows colors chars-per-pixel */
"32 32 84 1 ",
"  c white",
". c #BC886E",
"X c #B77D60",
"o c #DDC5B9",
"O c #FBF4F1",
"+ c #F0D5C7",
"@ c #DEA88B",
"# c #CE7F55",
"$ c #E69165",
"% c #F8F8F8",
"& c #A45833",
"* c #873C1A",
"= c #853A19",
"- c #92421D",
"; c #C48B6E",
": c #D99A79",
"> c #C97449",
", c #BD5D2C",
"< c #BA592A",
"1 c #B8582A",
"2 c #E58A5C",
"3 c #884527",
"4 c #F1E8E3",
"5 c #C17752",
"6 c #BC5B2B",
"7 c #B25427",
"8 c #B45628",
"9 c #894729",
"0 c #BB7555",
"q c #B75729",
"w c #AF5326",
"e c #BB5A2A",
"r c #B85929",
"t c #AC5025",
"y c #B15327",
"u c #B55629",
"i c #B15426",
"p c #BB5A2B",
"a c #B15427",
"s c #B55728",
"d c #B9592A",
"f c #B05427",
"g c #B95A2A",
"h c #B35627",
"j c #B35527",
"k c #B25527",
"l c #B25528",
"z c #B16D4C",
"x c #B08977",
"c c #B8AEA9",
"v c #B35629",
"b c #A75934",
"n c #B0836D",
"m c #B55628",
"M c #B45627",
"N c #AD5125",
"B c #AF5325",
"V c #AF5226",
"C c #B05327",
"Z c #B05426",
"A c #FBF9F8",
"S c #EBE2DF",
"D c #9A4E2C",
"F c #864225",
"G c #B16A4B",
"H c #B35528",
"J c #B65828",
"K c #DFCECB",
"L c #6C1701",
"P c #6C1801",
"I c #6D1802",
"U c #741E06",
"Y c #79260C",
"T c #8E3A19",
"R c #B06440",
"E c #AA5025",
"W c #FAF8F8",
"Q c #E8DDDB",
"! c #EADFDD",
"~ c #FAF4F1",
"^ c #E8CFC4",
"/ c #CB9B84",
"( c #B56E4D",
") c #E59064",
/* pixels */
"      .XXXXXXXXXXXXXXo  O+@#$   ",
"%     &*===========*-;:>,<112   ",
"      &3444444444445611781112   ",
"      &9           01qwerty12   ",
"      &9           0ui<11pa12   ",
"      &9           0sd1111f12   ",
"      &9           0s11111f12   ",
"      &9           0s11111f12   ",
"      &9           0s11111f12   ",
"      &9           0s11111f12   ",
"      &9           0s11111f12   ",
"      &9           0s11111f12   ",
"      &9           0s11111f12   ",
"      &9           0s11111f12   ",
"      &9           0s11111f12   ",
"      &9           0s11111f12   ",
"      &9           0ghhjkkl12   ",
"      &9           011111zxc2   ",
"      &9           011111vbn2   ",
"      &9           0msssMkN12   ",
"      &9           0s11111f12   ",
"      &9           0s11111f12   ",
"      &9           0s11111f12   ",
"      &9           0s11111f12   ",
"      &9           0s11111f12   ",
"      &9           0s11111f12   ",
"      &9           0s11111f12   ",
"      &9           0s11111f12   ",
"      &9           0gjBVCqZ12   ",
"    ASDFSSSSSSSSSSSGtH1p6J812   ",
"    KLPPPPPPPPPPPPPIUYTREC112   ",
"    WQQQQQQQQQQQQQQQQQ! ~^/()   "
};
